<?xml version="1.0" encoding="utf-8"?>
<!-- Generator: Adobe Illustrator 27.5.0, SVG Export Plug-In . SVG Version: 6.00 Build 0)  -->
<svg version="1.1" id="Layer_1" xmlns="http://www.w3.org/2000/svg" xmlns:xlink="http://www.w3.org/1999/xlink" x="0px" y="0px"
	 viewBox="0 0 1920 1080" style="enable-background:new 0 0 1920 1080;" xml:space="preserve">
<g>
	<polygon style="fill-rule:evenodd;clip-rule:evenodd;fill:#229E45;" points="-180,1339.084 2099.999,1339.084 2099.999,-258 
		-180,-258 -180,1339.084 	"/>
	<polygon style="fill-rule:evenodd;clip-rule:evenodd;fill:#F8E509;" points="-5.073,544.491 957.528,-84.063 1906.291,536.589 
		949.625,1165.142 -5.073,544.491 	"/>
	<path style="fill-rule:evenodd;clip-rule:evenodd;fill:#2B49A3;" d="M970.87,129.407c225.969,0,409.16,183.19,409.16,409.159
		c0,225.965-183.19,409.153-409.16,409.153c-225.969,0-409.153-183.188-409.153-409.153
		C561.717,312.598,744.901,129.407,970.87,129.407L970.87,129.407z"/>
	<path style="fill-rule:evenodd;clip-rule:evenodd;fill:#FFFFFF;" d="M1371.33,622.785c-4.456,21.289-10.579,41.96-18.197,61.893
		c-69.441-66.183-360.121-313.462-775.939-257.967c6.924-24.407,16.074-47.867,27.181-70.188
		C605.945,356.254,1003.137,289.147,1371.33,622.785L1371.33,622.785z"/>
	<path style="fill:#33A03D;" d="M676.428,403.864l1.838-43.093l21.532,0.914c5.408,0.23,9.326,0.79,11.746,1.665
		c2.43,0.877,4.327,2.334,5.716,4.377c1.392,2.048,2.037,4.338,1.93,6.885c-0.14,3.237-1.361,5.862-3.677,7.872
		c-2.317,2.01-5.698,3.192-10.155,3.557c2.161,1.183,3.925,2.468,5.29,3.845c1.381,1.37,3.215,3.789,5.5,7.246l5.821,8.672
		l-12.224-0.521l-6.928-9.726c-2.485-3.452-4.195-5.633-5.136-6.547c-0.935-0.903-1.93-1.549-3.004-1.92
		c-1.081-0.365-2.796-0.596-5.15-0.698l-2.076-0.086l-0.763,17.993L676.428,403.864L676.428,403.864z M687.739,379.44l7.569,0.323
		c4.902,0.21,7.961,0.156,9.203-0.14c1.225-0.302,2.22-0.871,2.934-1.704c0.737-0.833,1.124-1.903,1.179-3.194
		c0.064-1.457-0.35-2.638-1.216-3.579c-0.871-0.931-2.129-1.549-3.767-1.85c-0.833-0.14-3.318-0.289-7.457-0.467l-7.978-0.345
		L687.739,379.44L687.739,379.44z"/>
	<path style="fill:#33A03D;" d="M730.568,362.786l18.617,1.317c4.198,0.297,7.381,0.791,9.542,1.5
		c2.903,0.947,5.349,2.451,7.322,4.5c1.984,2.043,3.419,4.478,4.333,7.311c0.897,2.822,1.214,6.257,0.925,10.284
		c-0.247,3.548-0.98,6.554-2.199,9.043c-1.479,3.047-3.458,5.456-5.937,7.224c-1.871,1.345-4.336,2.317-7.396,2.931
		c-2.29,0.451-5.312,0.538-9.081,0.273l-19.165-1.354L730.568,362.786L730.568,362.786z M740.294,370.779l-2.01,28.488l7.585,0.532
		c2.839,0.204,4.898,0.21,6.171,0.026c1.689-0.236,3.091-0.735,4.237-1.505c1.151-0.764,2.133-2.081,2.951-3.957
		c0.827-1.875,1.354-4.483,1.591-7.81c0.236-3.322,0.076-5.893-0.494-7.726c-0.554-1.827-1.424-3.279-2.59-4.371
		c-1.162-1.074-2.678-1.87-4.559-2.354c-1.393-0.372-4.178-0.704-8.317-1L740.294,370.779L740.294,370.779z"/>
	<polygon style="fill:#33A03D;" points="778.618,409.659 783.547,366.808 820.815,371.092 819.98,378.333 792.912,375.22 
		791.816,384.736 816.985,387.628 816.153,394.87 790.983,391.977 789.649,403.589 817.702,406.815 816.868,414.056 
		778.618,409.659 	"/>
	<polygon style="fill:#33A03D;" points="828.216,416.937 831.134,373.898 846.467,374.94 853.542,404.906 864.486,376.162 
		879.858,377.204 876.938,420.238 867.476,419.597 869.74,385.715 857.477,418.921 847.633,418.254 840.011,383.699 
		837.677,417.578 828.216,416.937 	"/>
	<polygon style="fill:#33A03D;" points="897.564,423.851 906.182,395.144 927.464,401.541 926.009,406.395 910.515,401.746 
		908.612,408.105 923.015,412.437 921.562,417.276 907.155,412.943 904.807,420.754 920.847,425.571 919.386,430.404 
		897.564,423.851 	"/>
	<polygon style="fill:none;stroke:#33A03D;stroke-width:0.4258;stroke-miterlimit:2.6131;" points="897.564,423.851 
		906.182,395.144 927.464,401.541 926.009,406.395 910.515,401.746 908.612,408.105 923.015,412.437 921.562,417.276 
		907.155,412.943 904.807,420.754 920.847,425.571 919.386,430.404 897.564,423.851 	"/>
	<path style="fill:#33A03D;" d="M949.609,447.828l7.451-47.491l15.39,2.424c5.828,0.908,9.592,1.741,11.296,2.5
		c2.597,1.14,4.638,3.043,6.102,5.719c1.457,2.673,1.886,5.897,1.3,9.682c-0.455,2.914-1.37,5.28-2.746,7.107
		c-1.367,1.818-2.951,3.161-4.769,4.038c-1.8,0.886-3.581,1.37-5.327,1.477c-2.35,0.092-5.699-0.203-10.048-0.882l-6.252-0.978
		l-2.807,17.912L949.609,447.828L949.609,447.828z M965.393,409.879l-2.118,13.482l5.252,0.818c3.774,0.591,6.342,0.742,7.698,0.451
		c1.344-0.306,2.472-0.925,3.354-1.866c0.897-0.941,1.441-2.118,1.667-3.531c0.274-1.726-0.005-3.226-0.849-4.511
		c-0.84-1.28-2.017-2.183-3.533-2.71c-1.107-0.396-3.382-0.866-6.843-1.407L965.393,409.879L965.393,409.879z"/>
	<path style="fill:#33A03D;" d="M988.207,455.01l18.924-44.179l18.783,8.053c4.721,2.021,7.978,3.887,9.779,5.59
		c1.801,1.717,2.903,3.861,3.327,6.436c0.409,2.586,0.059,5.178-1.059,7.794c-1.425,3.312-3.57,5.629-6.44,6.958
		c-2.881,1.326-6.376,1.435-10.494,0.337c1.452,1.951,2.516,3.872,3.194,5.753c0.672,1.886,1.349,4.999,2,9.343l1.699,10.934
		l-10.667-4.574l-2.323-12.371c-0.822-4.424-1.466-7.256-1.923-8.514c-0.459-1.258-1.092-2.242-1.898-2.984
		c-0.795-0.737-2.225-1.549-4.274-2.426l-1.801-0.774l-7.908,18.446L988.207,455.01L988.207,455.01z M1008.044,433.333l6.607,2.835
		c4.274,1.831,7.026,2.8,8.247,2.892c1.221,0.09,2.323-0.179,3.296-0.802c0.983-0.624,1.762-1.595,2.332-2.919
		c0.63-1.488,0.759-2.866,0.344-4.106c-0.403-1.258-1.273-2.323-2.617-3.178c-0.667-0.414-2.817-1.392-6.436-2.947l-6.961-2.978
		L1008.044,433.333L1008.044,433.333z"/>
	<path style="fill:#33A03D;" d="M1039.86,453.52c1.504-4.66,3.478-8.344,5.896-11.052c1.796-1.99,3.893-3.618,6.29-4.887
		c2.399-1.269,4.812-2,7.242-2.205c3.242-0.274,6.72,0.195,10.45,1.403c6.736,2.183,11.439,6.022,14.128,11.511
		c2.688,5.5,2.822,11.962,0.409,19.402c-2.393,7.381-6.274,12.504-11.645,15.37c-5.364,2.87-11.408,3.209-18.122,1.037
		c-6.79-2.21-11.526-6.038-14.191-11.487C1037.651,467.153,1037.5,460.789,1039.86,453.52L1039.86,453.52z M1049.472,456.3
		c-1.682,5.172-1.763,9.483-0.236,12.933c1.531,3.441,4.133,5.769,7.805,6.963c3.687,1.188,7.128,0.843,10.348-1.043
		c3.22-1.877,5.693-5.473,7.414-10.778c1.704-5.237,1.816-9.516,0.365-12.844c-1.457-3.317-4.095-5.602-7.902-6.833
		c-3.801-1.241-7.295-0.935-10.474,0.92C1053.622,447.472,1051.181,451.037,1049.472,456.3L1049.472,456.3z"/>
	<path style="fill:#33A03D;" d="M1107.643,487.863l3.543-7.286l18.8,9.166l-8.382,17.22c-2.688,0.875-6.09,1.144-10.214,0.801
		c-4.128-0.344-7.961-1.387-11.525-3.119c-4.517-2.193-8-5.069-10.43-8.595c-2.435-3.537-3.649-7.484-3.618-11.826
		c0.033-4.362,1.05-8.602,3.076-12.747c2.194-4.495,5.08-8.037,8.676-10.612c3.581-2.591,7.656-3.925,12.193-4.021
		c3.473-0.075,7.274,0.882,11.391,2.887c5.37,2.617,9.01,5.784,10.94,9.503c1.919,3.715,2.343,7.768,1.269,12.161l-9.451-2.601
		c0.424-2.419,0.096-4.651-0.991-6.698c-1.079-2.038-2.881-3.684-5.391-4.904c-3.817-1.86-7.435-2.122-10.866-0.801
		c-3.424,1.313-6.289,4.36-8.606,9.112c-2.511,5.13-3.231,9.533-2.21,13.204c1.032,3.677,3.397,6.407,7.09,8.21
		c1.828,0.892,3.834,1.429,6.016,1.606c2.183,0.168,4.193,0.065,6.005-0.3l2.671-5.495L1107.643,487.863L1107.643,487.863z"/>
	<path style="fill:#33A03D;" d="M1130.345,519.977l21.66-42.91l18.242,9.209c4.59,2.317,7.718,4.386,9.413,6.204
		c1.687,1.822,2.66,4.026,2.914,6.638c0.245,2.596-0.265,5.162-1.544,7.704c-1.624,3.214-3.914,5.397-6.865,6.542
		c-2.957,1.146-6.451,1.028-10.483-0.317c1.317,2.032,2.252,4.012,2.811,5.93c0.56,1.93,1.032,5.086,1.419,9.461l1.011,11.021
		l-10.36-5.231l-1.547-12.504c-0.543-4.463-1.006-7.333-1.393-8.612c-0.37-1.28-0.945-2.312-1.688-3.102
		c-0.757-0.79-2.129-1.682-4.128-2.682l-1.752-0.882l-9.046,17.912L1130.345,519.977L1130.345,519.977z M1151.517,499.591
		l6.408,3.237c4.15,2.096,6.832,3.236,8.052,3.402c1.21,0.172,2.317-0.02,3.345-0.585c1.022-0.566,1.855-1.485,2.505-2.78
		c0.726-1.44,0.923-2.807,0.608-4.075c-0.328-1.28-1.124-2.392-2.419-3.332c-0.645-0.452-2.732-1.564-6.247-3.345l-6.751-3.408
		L1151.517,499.591L1151.517,499.591z"/>
	<polygon style="fill:#33A03D;" points="1173.498,542.953 1197.524,501.279 1228.417,519.084 1224.359,526.133 1201.867,513.182 
		1196.546,522.418 1217.467,534.476 1213.43,541.502 1192.497,529.438 1185.965,540.781 1209.248,554.206 1205.2,561.231 
		1173.498,542.953 	"/>
	<path style="fill:#33A03D;" d="M1218.107,552.672l8.221,4.749c-1.378,2.918-1.796,5.487-1.247,7.703
		c0.547,2.225,2.026,4.194,4.423,5.907c2.553,1.824,4.854,2.657,6.913,2.5c2.06-0.151,3.603-0.95,4.64-2.392
		c0.656-0.925,0.947-1.909,0.87-2.951c-0.081-1.028-0.623-2.268-1.629-3.721c-0.694-0.983-2.398-3.058-5.111-6.23
		c-3.473-4.075-5.527-7.495-6.145-10.247c-0.866-3.87-0.188-7.359,2.026-10.446c1.43-2,3.327-3.452,5.699-4.38
		c2.371-0.931,4.935-1.087,7.714-0.469c2.78,0.602,5.666,1.99,8.678,4.139c4.907,3.513,7.832,7.232,8.783,11.156
		c0.93,3.929,0.184,7.742-2.262,11.424l-8.144-5.311c1.103-2.242,1.407-4.215,0.93-5.881c-0.49-1.678-1.839-3.312-4.065-4.904
		c-2.29-1.645-4.436-2.457-6.407-2.435c-1.264,0.006-2.258,0.512-2.985,1.522c-0.666,0.93-0.838,2-0.521,3.214
		c0.398,1.56,2.189,4.161,5.387,7.812c3.194,3.66,5.371,6.628,6.509,8.912c1.152,2.29,1.641,4.64,1.485,7.07
		c-0.156,2.419-1.118,4.876-2.892,7.348c-1.603,2.237-3.736,3.893-6.377,4.968c-2.649,1.065-5.451,1.252-8.407,0.58
		c-2.951-0.678-6.134-2.236-9.527-4.66c-4.957-3.533-7.928-7.398-8.956-11.581C1214.694,561.893,1215.495,557.421,1218.107,552.672
		L1218.107,552.672z"/>
	<path style="fill:#33A03D;" d="M1255.012,576.967l7.903,5.251c-1.56,2.824-2.135,5.361-1.726,7.608
		c0.409,2.247,1.757,4.312,4.049,6.176c2.424,1.962,4.66,2.947,6.729,2.92c2.06-0.033,3.657-0.726,4.769-2.102
		c0.72-0.877,1.07-1.833,1.065-2.87c-0.017-1.044-0.479-2.319-1.398-3.824c-0.635-1.026-2.194-3.209-4.699-6.536
		c-3.22-4.29-5.053-7.827-5.489-10.601c-0.623-3.92,0.268-7.348,2.678-10.306c1.542-1.892,3.531-3.225,5.951-4.01
		c2.43-0.781,5.005-0.764,7.731,0.022c2.726,0.785,5.526,2.343,8.392,4.677c4.677,3.806,7.359,7.703,8.064,11.676
		c0.689,3.984-0.3,7.731-2.973,11.246l-7.795-5.8c1.236-2.172,1.672-4.112,1.3-5.812c-0.385-1.709-1.628-3.413-3.746-5.145
		c-2.188-1.779-4.27-2.726-6.243-2.831c-1.263-0.082-2.278,0.375-3.07,1.332c-0.72,0.882-0.956,1.945-0.724,3.177
		c0.295,1.564,1.923,4.274,4.881,8.129c2.962,3.844,4.935,6.94,5.935,9.295c1.006,2.354,1.349,4.741,1.043,7.149
		c-0.317,2.398-1.435,4.784-3.354,7.14c-1.743,2.14-3.957,3.656-6.678,4.553c-2.698,0.903-5.5,0.914-8.407,0.059
		c-2.909-0.86-5.989-2.619-9.225-5.246c-4.71-3.844-7.44-7.877-8.188-12.117C1251.03,585.939,1252.115,581.536,1255.012,576.967
		L1255.012,576.967z"/>
	<path style="fill:#33A03D;" d="M1293.859,597.922c2.817-3.994,5.784-6.941,8.892-8.811c2.311-1.376,4.8-2.317,7.462-2.818
		c2.676-0.499,5.192-0.488,7.585,0.044c3.172,0.676,6.365,2.155,9.564,4.402c5.802,4.092,9.166,9.15,10.122,15.193
		c0.941,6.055-0.844,12.274-5.36,18.675c-4.461,6.344-9.687,10.102-15.659,11.246c-5.983,1.157-11.859-0.3-17.629-4.365
		c-5.859-4.124-9.245-9.182-10.186-15.177C1287.719,610.315,1289.451,604.185,1293.859,597.922L1293.859,597.922z M1302.224,603.427
		c-3.135,4.452-4.478,8.549-4.049,12.294c0.446,3.753,2.247,6.736,5.414,8.967c3.166,2.227,6.565,2.914,10.198,2.071
		c3.634-0.861,7.058-3.559,10.273-8.124c3.172-4.504,4.548-8.558,4.139-12.176c-0.418-3.601-2.258-6.565-5.531-8.869
		c-3.279-2.307-6.705-3.038-10.29-2.205C1308.798,596.218,1305.418,598.9,1302.224,603.427L1302.224,603.427z"/>
	<polygon style="fill-rule:evenodd;clip-rule:evenodd;fill:#FFFFFF;" points="1101.806,398.644 1106.472,408.847 1117.616,410.131 
		1109.353,417.722 1111.578,428.721 1101.806,423.205 1092.032,428.721 1094.257,417.722 1085.99,410.131 1097.14,408.847 
		1101.806,398.644 	"/>
	<polygon style="fill:none;stroke:#FFFFFF;stroke-width:7.8843;stroke-miterlimit:2.6131;" points="1101.806,398.644 
		1106.472,408.847 1117.616,410.131 1109.353,417.722 1111.578,428.721 1101.806,423.205 1092.032,428.721 1094.257,417.722 
		1085.99,410.131 1097.14,408.847 1101.806,398.644 	"/>
	<polygon style="fill-rule:evenodd;clip-rule:evenodd;fill:#FFFFFF;" points="642.113,456.268 646.963,466.884 658.553,468.218 
		649.958,476.109 652.274,487.544 642.113,481.808 631.948,487.544 634.264,476.109 625.669,468.218 637.265,466.884 
		642.113,456.268 	"/>
	<polygon style="fill:none;stroke:#FFFFFF;stroke-width:7.8843;stroke-miterlimit:2.6131;" points="642.113,456.268 
		646.963,466.884 658.553,468.218 649.958,476.109 652.274,487.544 642.113,481.808 631.948,487.544 634.264,476.109 
		625.669,468.218 637.265,466.884 642.113,456.268 	"/>
	<polygon style="fill-rule:evenodd;clip-rule:evenodd;fill:#FFFFFF;" points="828.292,542.319 833.145,552.931 844.736,554.265 
		836.139,562.156 838.456,573.596 828.292,567.861 818.131,573.596 820.448,562.156 811.852,554.265 823.442,552.931 
		828.292,542.319 	"/>
	<polygon style="fill:none;stroke:#FFFFFF;stroke-width:7.8843;stroke-miterlimit:2.6131;" points="828.292,542.319 
		833.145,552.931 844.736,554.265 836.139,562.156 838.456,573.596 828.292,567.861 818.131,573.596 820.448,562.156 
		811.852,554.265 823.442,552.931 828.292,542.319 	"/>
	<polygon style="fill-rule:evenodd;clip-rule:evenodd;fill:#FFFFFF;" points="977.584,581.386 982.815,592.832 995.315,594.267 
		986.048,602.781 988.542,615.115 977.584,608.926 966.629,615.115 969.123,602.781 959.856,594.267 972.354,592.832 
		977.584,581.386 	"/>
	<polygon style="fill:none;stroke:#FFFFFF;stroke-width:7.8843;stroke-miterlimit:2.6131;" points="977.584,581.386 
		982.815,592.832 995.315,594.267 986.048,602.781 988.542,615.115 977.584,608.926 966.629,615.115 969.123,602.781 
		959.856,594.267 972.354,592.832 977.584,581.386 	"/>
	<polygon style="fill-rule:evenodd;clip-rule:evenodd;fill:#FFFFFF;" points="1084.264,517.111 1087.495,524.181 1095.219,525.069 
		1089.495,530.331 1091.037,537.954 1084.264,534.132 1077.491,537.954 1079.033,530.331 1073.309,525.069 1081.033,524.181 
		1084.264,517.111 	"/>
	<polygon style="fill:none;stroke:#FFFFFF;stroke-width:7.8843;stroke-miterlimit:2.6131;" points="1084.264,517.111 
		1087.495,524.181 1095.219,525.069 1089.495,530.331 1091.037,537.954 1084.264,534.132 1077.491,537.954 1079.033,530.331 
		1073.309,525.069 1081.033,524.181 1084.264,517.111 	"/>
	<polygon style="fill-rule:evenodd;clip-rule:evenodd;fill:#FFFFFF;" points="682.03,623.856 686.878,634.468 698.47,635.801 
		689.873,643.692 692.191,655.128 682.03,649.396 671.869,655.128 674.181,643.692 665.584,635.801 677.18,634.468 682.03,623.856 	
		"/>
	<polygon style="fill:none;stroke:#FFFFFF;stroke-width:7.8843;stroke-miterlimit:2.6131;" points="682.03,623.856 686.878,634.468 
		698.47,635.801 689.873,643.692 692.191,655.128 682.03,649.396 671.869,655.128 674.181,643.692 665.584,635.801 677.18,634.468 
		682.03,623.856 	"/>
	<polygon style="fill-rule:evenodd;clip-rule:evenodd;fill:#FFFFFF;" points="827.308,747.941 831.678,757.511 842.134,758.71 
		834.383,765.826 836.467,776.138 827.308,770.965 818.148,776.138 820.233,765.826 812.481,758.71 822.937,757.511 
		827.308,747.941 	"/>
	<polygon style="fill:none;stroke:#FFFFFF;stroke-width:7.8843;stroke-miterlimit:2.6131;" points="827.308,747.941 
		831.678,757.511 842.134,758.71 834.383,765.826 836.467,776.138 827.308,770.965 818.148,776.138 820.233,765.826 812.481,758.71 
		822.937,757.511 827.308,747.941 	"/>
	<polygon style="fill-rule:evenodd;clip-rule:evenodd;fill:#FFFFFF;" points="983.987,709.122 988.358,718.691 998.815,719.896 
		991.062,727.008 993.149,737.32 983.987,732.146 974.828,737.32 976.913,727.008 969.162,719.896 979.612,718.691 983.987,709.122 
			"/>
	<polygon style="fill:none;stroke:#FFFFFF;stroke-width:7.8843;stroke-miterlimit:2.6131;" points="983.987,709.122 
		988.358,718.691 998.815,719.896 991.062,727.008 993.149,737.32 983.987,732.146 974.828,737.32 976.913,727.008 969.162,719.896 
		979.612,718.691 983.987,709.122 	"/>
	<polygon style="fill-rule:evenodd;clip-rule:evenodd;fill:#FFFFFF;" points="1099.833,813.404 1104.204,822.968 1114.654,824.171 
		1106.907,831.288 1108.993,841.6 1099.833,836.428 1090.667,841.6 1092.758,831.288 1085.006,824.171 1095.458,822.968 
		1099.833,813.404 	"/>
	<polygon style="fill:none;stroke:#FFFFFF;stroke-width:7.8843;stroke-miterlimit:2.6131;" points="1099.833,813.404 
		1104.204,822.968 1114.654,824.171 1106.907,831.288 1108.993,841.6 1099.833,836.428 1090.667,841.6 1092.758,831.288 
		1085.006,824.171 1095.458,822.968 1099.833,813.404 	"/>
	<polygon style="fill-rule:evenodd;clip-rule:evenodd;fill:#FFFFFF;" points="627.922,667.503 630.76,673.711 637.544,674.49 
		632.512,679.108 633.866,685.802 627.922,682.447 621.97,685.802 623.326,679.108 618.299,674.49 625.083,673.711 627.922,667.503 
			"/>
	<polygon style="fill:none;stroke:#FFFFFF;stroke-width:7.8843;stroke-miterlimit:2.6131;" points="627.922,667.503 630.76,673.711 
		637.544,674.49 632.512,679.108 633.866,685.802 627.922,682.447 621.97,685.802 623.326,679.108 618.299,674.49 625.083,673.711 
		627.922,667.503 	"/>
	<polygon style="fill-rule:evenodd;clip-rule:evenodd;fill:#FFFFFF;" points="723.29,610.748 725.095,614.689 729.396,615.185 
		726.208,618.119 727.064,622.367 723.29,620.232 719.516,622.367 720.376,618.119 717.183,615.185 721.488,614.689 723.29,610.748 
			"/>
	<polygon style="fill:none;stroke:#FFFFFF;stroke-width:7.8843;stroke-miterlimit:2.6131;" points="723.29,610.748 725.095,614.689 
		729.396,615.185 726.208,618.119 727.064,622.367 723.29,620.232 719.516,622.367 720.376,618.119 717.183,615.185 
		721.488,614.689 723.29,610.748 	"/>
	<polygon style="fill-rule:evenodd;clip-rule:evenodd;fill:#FFFFFF;" points="761.98,669.658 764.817,675.866 771.603,676.652 
		766.572,681.27 767.926,687.957 761.98,684.603 756.034,687.957 757.388,681.27 752.357,676.652 759.141,675.866 761.98,669.658 	
		"/>
	<polygon style="fill:none;stroke:#FFFFFF;stroke-width:7.8843;stroke-miterlimit:2.6131;" points="761.98,669.658 764.817,675.866 
		771.603,676.652 766.572,681.27 767.926,687.957 761.98,684.603 756.034,687.957 757.388,681.27 752.357,676.652 759.141,675.866 
		761.98,669.658 	"/>
	<polygon style="fill-rule:evenodd;clip-rule:evenodd;fill:#FFFFFF;" points="744.54,711.784 747.378,717.992 754.163,718.771 
		749.132,723.39 750.486,730.083 744.54,726.728 738.595,730.083 739.944,723.39 734.917,718.771 741.701,717.992 744.54,711.784 	
		"/>
	<polygon style="fill:none;stroke:#FFFFFF;stroke-width:7.8843;stroke-miterlimit:2.6131;" points="744.54,711.784 747.378,717.992 
		754.163,718.771 749.132,723.39 750.486,730.083 744.54,726.728 738.595,730.083 739.944,723.39 734.917,718.771 741.701,717.992 
		744.54,711.784 	"/>
	<polygon style="fill-rule:evenodd;clip-rule:evenodd;fill:#FFFFFF;" points="982.719,845.82 984.519,849.761 988.826,850.256 
		985.634,853.19 986.492,857.438 982.719,855.309 978.945,857.438 979.805,853.19 976.613,850.256 980.918,849.761 982.719,845.82 	
		"/>
	<polygon style="fill:none;stroke:#FFFFFF;stroke-width:7.8843;stroke-miterlimit:2.6131;" points="982.719,845.82 984.519,849.761 
		988.826,850.256 985.634,853.19 986.492,857.438 982.719,855.309 978.945,857.438 979.805,853.19 976.613,850.256 980.918,849.761 
		982.719,845.82 	"/>
	<polygon style="fill-rule:evenodd;clip-rule:evenodd;fill:#FFFFFF;" points="970.365,671.39 972.165,675.33 976.473,675.825 
		973.279,678.754 974.139,683.006 970.365,680.872 966.592,683.006 967.451,678.754 964.258,675.825 968.565,675.33 970.365,671.39 
			"/>
	<polygon style="fill:none;stroke:#FFFFFF;stroke-width:7.8843;stroke-miterlimit:2.6131;" points="970.365,671.39 972.165,675.33 
		976.473,675.825 973.279,678.754 974.139,683.006 970.365,680.872 966.592,683.006 967.451,678.754 964.258,675.825 
		968.565,675.33 970.365,671.39 	"/>
	<polygon style="fill-rule:evenodd;clip-rule:evenodd;fill:#FFFFFF;" points="1068.034,755.897 1069.835,759.839 1074.142,760.333 
		1070.948,763.263 1071.808,767.509 1068.034,765.38 1064.254,767.509 1065.114,763.263 1061.922,760.333 1066.234,759.839 
		1068.034,755.897 	"/>
	<polygon style="fill:none;stroke:#FFFFFF;stroke-width:7.8843;stroke-miterlimit:2.6131;" points="1068.034,755.897 
		1069.835,759.839 1074.142,760.333 1070.948,763.263 1071.808,767.509 1068.034,765.38 1064.254,767.509 1065.114,763.263 
		1061.922,760.333 1066.234,759.839 1068.034,755.897 	"/>
	<polygon style="fill-rule:evenodd;clip-rule:evenodd;fill:#FFFFFF;" points="1125.148,757.548 1126.557,760.622 1129.917,761.01 
		1127.422,763.3 1128.094,766.618 1125.148,764.951 1122.201,766.618 1122.868,763.3 1120.379,761.01 1123.739,760.622 
		1125.148,757.548 	"/>
	<polygon style="fill:none;stroke:#FFFFFF;stroke-width:7.8843;stroke-miterlimit:2.6131;" points="1125.148,757.548 
		1126.557,760.622 1129.917,761.01 1127.422,763.3 1128.094,766.618 1125.148,764.951 1122.201,766.618 1122.868,763.3 
		1120.379,761.01 1123.739,760.622 1125.148,757.548 	"/>
	<polygon style="fill-rule:evenodd;clip-rule:evenodd;fill:#FFFFFF;" points="1186.422,753.392 1189.27,759.623 1196.078,760.409 
		1191.029,765.041 1192.39,771.757 1186.422,768.39 1180.456,771.757 1181.815,765.041 1176.766,760.409 1183.572,759.623 
		1186.422,753.392 	"/>
	<polygon style="fill:none;stroke:#FFFFFF;stroke-width:7.8843;stroke-miterlimit:2.6131;" points="1186.422,753.392 
		1189.27,759.623 1196.078,760.409 1191.029,765.041 1192.39,771.757 1186.422,768.39 1180.456,771.757 1181.815,765.041 
		1176.766,760.409 1183.572,759.623 1186.422,753.392 	"/>
	<polygon style="fill-rule:evenodd;clip-rule:evenodd;fill:#FFFFFF;" points="1216.946,752.301 1219.317,757.489 1224.978,758.139 
		1220.78,761.994 1221.909,767.579 1216.946,764.779 1211.984,767.579 1213.113,761.994 1208.915,758.139 1214.576,757.489 
		1216.946,752.301 	"/>
	<polygon style="fill:none;stroke:#FFFFFF;stroke-width:7.8843;stroke-miterlimit:2.6131;" points="1216.946,752.301 
		1219.317,757.489 1224.978,758.139 1220.78,761.994 1221.909,767.579 1216.946,764.779 1211.984,767.579 1213.113,761.994 
		1208.915,758.139 1214.576,757.489 1216.946,752.301 	"/>
	<polygon style="fill-rule:evenodd;clip-rule:evenodd;fill:#FFFFFF;" points="1185.309,799.329 1187.68,804.512 1193.341,805.162 
		1189.141,809.022 1190.272,814.607 1185.309,811.807 1180.347,814.607 1181.476,809.022 1177.278,805.162 1182.938,804.512 
		1185.309,799.329 	"/>
	<polygon style="fill:none;stroke:#FFFFFF;stroke-width:7.8843;stroke-miterlimit:2.6131;" points="1185.309,799.329 
		1187.68,804.512 1193.341,805.162 1189.141,809.022 1190.272,814.607 1185.309,811.807 1180.347,814.607 1181.476,809.022 
		1177.278,805.162 1182.938,804.512 1185.309,799.329 	"/>
	<polygon style="fill-rule:evenodd;clip-rule:evenodd;fill:#FFFFFF;" points="1186.792,833.919 1189.158,839.104 1194.818,839.756 
		1190.626,843.611 1191.755,849.197 1186.792,846.395 1181.831,849.197 1182.959,843.611 1178.761,839.756 1184.422,839.104 
		1186.792,833.919 	"/>
	<polygon style="fill:none;stroke:#FFFFFF;stroke-width:7.8843;stroke-miterlimit:2.6131;" points="1186.792,833.919 
		1189.158,839.104 1194.818,839.756 1190.626,843.611 1191.755,849.197 1186.792,846.395 1181.831,849.197 1182.959,843.611 
		1178.761,839.756 1184.422,839.104 1186.792,833.919 	"/>
	<polygon style="fill-rule:evenodd;clip-rule:evenodd;fill:#FFFFFF;" points="1255.432,740.894 1258.927,748.549 1267.292,749.511 
		1261.087,755.204 1262.76,763.451 1255.432,759.316 1248.099,763.451 1249.772,755.204 1243.567,749.511 1251.932,748.549 
		1255.432,740.894 	"/>
	<polygon style="fill:none;stroke:#FFFFFF;stroke-width:7.8843;stroke-miterlimit:2.6131;" points="1255.432,740.894 
		1258.927,748.549 1267.292,749.511 1261.087,755.204 1262.76,763.451 1255.432,759.316 1248.099,763.451 1249.772,755.204 
		1243.567,749.511 1251.932,748.549 1255.432,740.894 	"/>
	<polygon style="fill-rule:evenodd;clip-rule:evenodd;fill:#FFFFFF;" points="1313.858,674.11 1316.227,679.292 1321.888,679.948 
		1317.69,683.801 1318.819,689.387 1313.858,686.586 1308.896,689.387 1310.025,683.801 1305.825,679.948 1311.487,679.292 
		1313.858,674.11 	"/>
	<polygon style="fill:none;stroke:#FFFFFF;stroke-width:7.8843;stroke-miterlimit:2.6131;" points="1313.858,674.11 
		1316.227,679.292 1321.888,679.948 1317.69,683.801 1318.819,689.387 1313.858,686.586 1308.896,689.387 1310.025,683.801 
		1305.825,679.948 1311.487,679.292 1313.858,674.11 	"/>
	<polygon style="fill-rule:evenodd;clip-rule:evenodd;fill:#FFFFFF;" points="1260.905,667.459 1265.409,677.319 1276.183,678.559 
		1268.2,685.892 1270.345,696.521 1260.905,691.194 1251.459,696.521 1253.609,685.892 1245.627,678.559 1256.394,677.319 
		1260.905,667.459 	"/>
	<polygon style="fill:none;stroke:#FFFFFF;stroke-width:7.8843;stroke-miterlimit:2.6131;" points="1260.905,667.459 
		1265.409,677.319 1276.183,678.559 1268.2,685.892 1270.345,696.521 1260.905,691.194 1251.459,696.521 1253.609,685.892 
		1245.627,678.559 1256.394,677.319 1260.905,667.459 	"/>
	<polygon style="fill-rule:evenodd;clip-rule:evenodd;fill:#FFFFFF;" points="940.352,633.49 943.191,639.699 949.975,640.478 
		944.948,645.096 946.304,651.788 940.352,648.434 934.405,651.788 935.761,645.096 930.728,640.478 937.512,639.699 
		940.352,633.49 	"/>
	<polygon style="fill:none;stroke:#FFFFFF;stroke-width:7.8843;stroke-miterlimit:2.6131;" points="940.352,633.49 943.191,639.699 
		949.975,640.478 944.948,645.096 946.304,651.788 940.352,648.434 934.405,651.788 935.761,645.096 930.728,640.478 
		937.512,639.699 940.352,633.49 	"/>
	<polygon style="fill-rule:evenodd;clip-rule:evenodd;fill:#FFFFFF;" points="1020.958,631.682 1023.797,637.89 1030.58,638.671 
		1025.549,643.289 1026.903,649.982 1020.958,646.627 1015.012,649.982 1016.368,643.289 1011.336,638.671 1018.118,637.89 
		1020.958,631.682 	"/>
	<polygon style="fill:none;stroke:#FFFFFF;stroke-width:7.8843;stroke-miterlimit:2.6131;" points="1020.958,631.682 
		1023.797,637.89 1030.58,638.671 1025.549,643.289 1026.903,649.982 1020.958,646.627 1015.012,649.982 1016.368,643.289 
		1011.336,638.671 1018.118,637.89 1020.958,631.682 	"/>
	<polygon style="fill-rule:evenodd;clip-rule:evenodd;fill:#FFFFFF;" points="1264.818,711.428 1267.19,716.616 1272.849,717.266 
		1268.651,721.121 1269.786,726.708 1264.818,723.906 1259.857,726.708 1260.986,721.121 1256.786,717.266 1262.452,716.616 
		1264.818,711.428 	"/>
	<polygon style="fill:none;stroke:#FFFFFF;stroke-width:7.8843;stroke-miterlimit:2.6131;" points="1264.818,711.428 
		1267.19,716.616 1272.849,717.266 1268.651,721.121 1269.786,726.708 1264.818,723.906 1259.857,726.708 1260.986,721.121 
		1256.786,717.266 1262.452,716.616 1264.818,711.428 	"/>
	<path style="fill:#33A03D;" d="M1039.86,453.52c1.504-4.66,3.478-8.344,5.896-11.052c1.796-1.99,3.893-3.618,6.29-4.887
		c2.399-1.269,4.812-2,7.242-2.205c3.242-0.274,6.72,0.195,10.45,1.403c6.736,2.183,11.439,6.022,14.128,11.511
		c2.688,5.5,2.822,11.962,0.409,19.402c-2.393,7.381-6.274,12.504-11.645,15.37c-5.364,2.87-11.408,3.209-18.122,1.037
		c-6.79-2.21-11.526-6.038-14.191-11.487C1037.651,467.153,1037.5,460.789,1039.86,453.52L1039.86,453.52z M1049.472,456.3
		c-1.682,5.172-1.763,9.483-0.236,12.933c1.531,3.441,4.133,5.769,7.805,6.963c3.687,1.188,7.128,0.843,10.348-1.043
		c3.22-1.877,5.693-5.473,7.414-10.778c1.704-5.237,1.816-9.516,0.365-12.844c-1.457-3.317-4.095-5.602-7.902-6.833
		c-3.801-1.241-7.295-0.935-10.474,0.92C1053.622,447.472,1051.181,451.037,1049.472,456.3L1049.472,456.3z"/>
	<path style="fill:#33A03D;" d="M625.534,386.58c-0.263-4.882,0.249-9.032,1.544-12.423c0.963-2.511,2.328-4.774,4.117-6.828
		c1.781-2.037,3.774-3.586,5.979-4.651c2.923-1.424,6.338-2.236,10.247-2.452c7.068-0.374,12.848,1.528,17.332,5.679
		c4.472,4.161,6.918,10.149,7.342,17.971c0.409,7.746-1.381,13.924-5.354,18.529c-3.984,4.598-9.499,7.086-16.548,7.464
		c-7.143,0.387-12.938-1.495-17.374-5.624C628.367,400.106,625.943,394.23,625.534,386.58L625.534,386.58z M635.511,385.72
		c0.286,5.441,1.759,9.494,4.425,12.172c2.656,2.66,5.919,3.903,9.779,3.698c3.865-0.215,6.967-1.774,9.295-4.688
		c2.328-2.914,3.343-7.149,3.048-12.714c-0.296-5.515-1.715-9.558-4.279-12.128c-2.553-2.575-5.826-3.756-9.827-3.542
		c-3.984,0.203-7.144,1.752-9.439,4.622C636.222,376.005,635.216,380.198,635.511,385.72L635.511,385.72z"/>
</g>
</svg>
