<?xml version="1.0" encoding="utf-8"?>
<!-- Generator: Adobe Illustrator 27.5.0, SVG Export Plug-In . SVG Version: 6.00 Build 0)  -->
<svg version="1.1" id="Layer_1" xmlns="http://www.w3.org/2000/svg" xmlns:xlink="http://www.w3.org/1999/xlink" x="0px" y="0px"
	 viewBox="419 255 1080 570.29" style="enable-background:new 419 255 1080 570.29;" xml:space="preserve">
<g>
	<polygon style="fill-rule:evenodd;clip-rule:evenodd;fill:#FFFFFF;" points="850.335,255 1499,255 1499,825.29 419,825.29 
		419,562.533 850.335,562.533 850.335,255 	"/>
	<path style="fill:#BA2026;" d="M419.029,825.29H1499v-44.779H419.029V825.29L419.029,825.29z M850.335,299.754H1499V255H850.335
		V299.754L850.335,299.754z M850.335,387.343H1499v-44.779H850.335V387.343L850.335,387.343z M850.335,474.933H1499v-44.78H850.335
		V474.933L850.335,474.933z M850.335,562.522H1499v-44.779H850.335V562.522L850.335,562.522z M419.029,650.111H1499v-44.78H419.029
		V650.111L419.029,650.111z M419.029,737.7H1499v-44.779H419.029V737.7L419.029,737.7z"/>
	<path style="fill:#2F306B;" d="M419,562.533h431.335V255H419V562.533L419,562.533z M635.362,421.624l4.036,12.555h13.062
		l-10.568,7.759l4.037,12.555l-10.567-7.759l-10.568,7.759l4.036-12.555l-10.568-7.759h13.063L635.362,421.624L635.362,421.624z
		 M742.974,513.387l4.036,12.554h13.062l-10.568,7.759l4.038,12.555l-10.568-7.759l-10.569,7.759l4.036-12.555l-10.567-7.759h13.063
		L742.974,513.387L742.974,513.387z M815.996,328.405l4.037,12.554h13.063l-10.568,7.76l4.036,12.555l-10.567-7.759l-10.567,7.759
		l4.035-12.555l-10.568-7.76h13.063L815.996,328.405L815.996,328.405z M815.996,513.387l4.037,12.554h13.063l-10.568,7.759
		l4.036,12.555l-10.567-7.759l-10.567,7.759l4.035-12.555l-10.568-7.759h13.063L815.996,513.387L815.996,513.387z M815.996,451.726
		l4.037,12.555h13.063l-10.568,7.759l4.036,12.555l-10.567-7.759l-10.567,7.759l4.035-12.555l-10.568-7.759h13.063L815.996,451.726
		L815.996,451.726z M815.996,266.744l4.037,12.555h13.063l-10.568,7.76l4.036,12.555l-10.567-7.758l-10.567,7.758l4.035-12.555
		l-10.568-7.76h13.063L815.996,266.744L815.996,266.744z M742.974,451.726l4.036,12.555h13.062l-10.568,7.759l4.038,12.555
		l-10.568-7.759l-10.569,7.759l4.036-12.555l-10.567-7.759h13.063L742.974,451.726L742.974,451.726z M815.996,390.066l4.037,12.555
		h13.063l-10.568,7.758l4.036,12.555l-10.567-7.76l-10.567,7.76l4.035-12.555l-10.568-7.758h13.063L815.996,390.066L815.996,390.066
		z M707.423,298.303l4.037,12.555h13.063l-10.568,7.759l4.036,12.555l-10.568-7.759l-10.567,7.759l4.037-12.555l-10.568-7.759
		h13.062L707.423,298.303L707.423,298.303z M742.974,266.744l4.036,12.555h13.062l-10.568,7.76l4.038,12.555l-10.568-7.758
		l-10.569,7.758l4.036-12.555l-10.567-7.76h13.063L742.974,266.744L742.974,266.744z M526.787,266.744l4.037,12.555h13.063
		l-10.568,7.76l4.036,12.555l-10.568-7.758l-10.568,7.758l4.037-12.555l-10.567-7.76h13.062L526.787,266.744L526.787,266.744z
		 M455.686,390.066l4.036,12.555h13.063l-10.568,7.758l4.037,12.555l-10.567-7.76l-10.568,7.76l4.036-12.555l-10.568-7.758h13.063
		L455.686,390.066L455.686,390.066z M526.787,451.726l4.037,12.555h13.063l-10.568,7.759l4.036,12.555l-10.568-7.759l-10.568,7.759
		l4.037-12.555l-10.567-7.759h13.062L526.787,451.726L526.787,451.726z M526.787,328.405l4.037,12.554h13.063l-10.568,7.76
		l4.036,12.555l-10.568-7.759l-10.568,7.759l4.037-12.555l-10.567-7.76h13.062L526.787,328.405L526.787,328.405z M599.81,513.387
		l4.037,12.554h13.063l-10.568,7.759l4.036,12.555l-10.568-7.759l-10.567,7.759l4.036-12.555l-10.568-7.759h13.063L599.81,513.387
		L599.81,513.387z M635.362,483.284l4.036,12.556h13.062l-10.568,7.758l4.037,12.555l-10.567-7.759l-10.568,7.759l4.036-12.555
		l-10.568-7.758h13.063L635.362,483.284L635.362,483.284z M599.81,328.405l4.037,12.554h13.063l-10.568,7.76l4.036,12.555
		l-10.568-7.759l-10.567,7.759l4.036-12.555l-10.568-7.76h13.063L599.81,328.405L599.81,328.405z M671.392,390.066l4.037,12.555
		h13.062l-10.568,7.758l4.035,12.555l-10.566-7.76l-10.568,7.76l4.037-12.555l-10.568-7.758h13.063L671.392,390.066L671.392,390.066
		z M455.686,513.387l4.036,12.554h13.063l-10.568,7.759l4.037,12.555l-10.567-7.759l-10.568,7.759l4.036-12.555l-10.568-7.759
		h13.063L455.686,513.387L455.686,513.387z M671.392,451.726l4.037,12.555h13.062l-10.568,7.759l4.035,12.555l-10.566-7.759
		l-10.568,7.759l4.037-12.555l-10.568-7.759h13.063L671.392,451.726L671.392,451.726z M599.81,390.066l4.037,12.555h13.063
		l-10.568,7.758l4.036,12.555l-10.568-7.76l-10.567,7.76l4.036-12.555l-10.568-7.758h13.063L599.81,390.066L599.81,390.066z
		 M599.81,266.744l4.037,12.555h13.063l-10.568,7.76l4.036,12.555l-10.568-7.758l-10.567,7.758l4.036-12.555l-10.568-7.76h13.063
		L599.81,266.744L599.81,266.744z M455.686,451.726l4.036,12.555h13.063l-10.568,7.759l4.037,12.555l-10.567-7.759l-10.568,7.759
		l4.036-12.555l-10.568-7.759h13.063L455.686,451.726L455.686,451.726z M526.787,513.387l4.037,12.554h13.063l-10.568,7.759
		l4.036,12.555l-10.568-7.759l-10.568,7.759l4.037-12.555l-10.567-7.759h13.062L526.787,513.387L526.787,513.387z M742.974,390.066
		l4.036,12.555h13.062l-10.568,7.758l4.038,12.555l-10.568-7.76l-10.569,7.76l4.036-12.555l-10.567-7.758h13.063L742.974,390.066
		L742.974,390.066z M742.974,328.405l4.036,12.554h13.062l-10.568,7.76l4.038,12.555l-10.568-7.759l-10.569,7.759l4.036-12.555
		l-10.567-7.76h13.063L742.974,328.405L742.974,328.405z M707.423,483.284l4.037,12.556h13.063l-10.568,7.758l4.036,12.555
		l-10.568-7.759l-10.567,7.759l4.037-12.555l-10.568-7.758h13.062L707.423,483.284L707.423,483.284z M671.392,513.387l4.037,12.554
		h13.062l-10.568,7.759l4.035,12.555l-10.566-7.759l-10.568,7.759l4.037-12.555l-10.568-7.759h13.063L671.392,513.387
		L671.392,513.387z M671.392,328.405l4.037,12.554h13.062l-10.568,7.76l4.035,12.555l-10.566-7.759l-10.568,7.759l4.037-12.555
		l-10.568-7.76h13.063L671.392,328.405L671.392,328.405z M526.787,390.066l4.037,12.555h13.063l-10.568,7.758l4.036,12.555
		l-10.568-7.76l-10.568,7.76l4.037-12.555l-10.567-7.758h13.062L526.787,390.066L526.787,390.066z M779.485,359.964l4.037,12.555
		h13.062l-10.567,7.759l4.036,12.555l-10.568-7.758l-10.566,7.758l4.036-12.555l-10.568-7.759h13.063L779.485,359.964
		L779.485,359.964z M779.485,421.624l4.037,12.555h13.062l-10.567,7.759l4.036,12.555l-10.568-7.759l-10.566,7.759l4.036-12.555
		l-10.568-7.759h13.063L779.485,421.624L779.485,421.624z M455.686,328.405l4.036,12.554h13.063l-10.568,7.76l4.037,12.555
		l-10.567-7.759l-10.568,7.759l4.036-12.555l-10.568-7.76h13.063L455.686,328.405L455.686,328.405z M779.485,298.303l4.037,12.555
		h13.062l-10.567,7.759l4.036,12.555l-10.568-7.759l-10.566,7.759l4.036-12.555l-10.568-7.759h13.063L779.485,298.303
		L779.485,298.303z M707.423,359.964l4.037,12.555h13.063l-10.568,7.759l4.036,12.555l-10.568-7.758l-10.567,7.758l4.037-12.555
		l-10.568-7.759h13.062L707.423,359.964L707.423,359.964z M707.423,421.624l4.037,12.555h13.063l-10.568,7.759l4.036,12.555
		l-10.568-7.759l-10.567,7.759l4.037-12.555l-10.568-7.759h13.062L707.423,421.624L707.423,421.624z M671.392,266.744l4.037,12.555
		h13.062l-10.568,7.76l4.035,12.555l-10.566-7.758l-10.568,7.758l4.037-12.555l-10.568-7.76h13.063L671.392,266.744L671.392,266.744
		z M599.81,451.726l4.037,12.555h13.063l-10.568,7.759l4.036,12.555l-10.568-7.759l-10.567,7.759l4.036-12.555l-10.568-7.759h13.063
		L599.81,451.726L599.81,451.726z M779.485,483.284l4.037,12.556h13.062l-10.567,7.758l4.036,12.555l-10.568-7.759l-10.566,7.759
		l4.036-12.555l-10.568-7.758h13.063L779.485,483.284L779.485,483.284z M491.237,483.284l4.036,12.556h13.063l-10.567,7.758
		l4.036,12.555l-10.567-7.759l-10.568,7.759l4.036-12.555l-10.567-7.758H487.2L491.237,483.284L491.237,483.284z M491.237,421.624
		l4.036,12.555h13.063l-10.567,7.759l4.036,12.555l-10.567-7.759l-10.568,7.759l4.036-12.555l-10.567-7.759H487.2L491.237,421.624
		L491.237,421.624z M563.3,421.624l4.035,12.555h13.063l-10.568,7.759l4.037,12.555l-10.567-7.759l-10.569,7.759l4.037-12.555
		l-10.568-7.759h13.062L563.3,421.624L563.3,421.624z M635.362,359.964l4.036,12.555h13.062l-10.568,7.759l4.037,12.555
		l-10.567-7.758l-10.568,7.758l4.036-12.555l-10.568-7.759h13.063L635.362,359.964L635.362,359.964z M563.3,298.303l4.035,12.555
		h13.063l-10.568,7.759l4.037,12.555l-10.567-7.759l-10.569,7.759l4.037-12.555l-10.568-7.759h13.062L563.3,298.303L563.3,298.303z
		 M563.3,359.964l4.035,12.555h13.063l-10.568,7.759l4.037,12.555l-10.567-7.758l-10.569,7.758l4.037-12.555l-10.568-7.759h13.062
		L563.3,359.964L563.3,359.964z M455.686,266.744l4.036,12.555h13.063l-10.568,7.76l4.037,12.555l-10.567-7.758l-10.568,7.758
		l4.036-12.555l-10.568-7.76h13.063L455.686,266.744L455.686,266.744z M491.237,359.964l4.036,12.555h13.063l-10.567,7.759
		l4.036,12.555l-10.567-7.758l-10.568,7.758l4.036-12.555l-10.567-7.759H487.2L491.237,359.964L491.237,359.964z M491.237,298.303
		l4.036,12.555h13.063l-10.567,7.759l4.036,12.555l-10.567-7.759l-10.568,7.759l4.036-12.555l-10.567-7.759H487.2L491.237,298.303
		L491.237,298.303z M563.3,483.284l4.035,12.556h13.063l-10.568,7.758l4.037,12.555l-10.567-7.759l-10.569,7.759l4.037-12.555
		l-10.568-7.758h13.062L563.3,483.284L563.3,483.284z M635.362,298.303l4.036,12.555h13.062l-10.568,7.759l4.037,12.555
		l-10.567-7.759l-10.568,7.759l4.036-12.555l-10.568-7.759h13.063L635.362,298.303L635.362,298.303z"/>
	<path style="fill:#FFFFFF;" d="M635.362,421.624l4.036,12.555h13.062l-10.568,7.759l4.037,12.555l-10.567-7.759l-10.568,7.759
		l4.036-12.555l-10.568-7.759h13.063L635.362,421.624L635.362,421.624z M742.974,513.387l4.036,12.554h13.062l-10.568,7.759
		l4.038,12.555l-10.568-7.759l-10.569,7.759l4.036-12.555l-10.567-7.759h13.063L742.974,513.387L742.974,513.387z M815.996,328.405
		l4.037,12.554h13.063l-10.568,7.76l4.036,12.555l-10.567-7.759l-10.567,7.759l4.035-12.555l-10.568-7.76h13.063L815.996,328.405
		L815.996,328.405z M815.996,513.387l4.037,12.554h13.063l-10.568,7.759l4.036,12.555l-10.567-7.759l-10.567,7.759l4.035-12.555
		l-10.568-7.759h13.063L815.996,513.387L815.996,513.387z M815.996,451.726l4.037,12.555h13.063l-10.568,7.759l4.036,12.555
		l-10.567-7.759l-10.567,7.759l4.035-12.555l-10.568-7.759h13.063L815.996,451.726L815.996,451.726z M815.996,266.744l4.037,12.555
		h13.063l-10.568,7.76l4.036,12.555l-10.567-7.758l-10.567,7.758l4.035-12.555l-10.568-7.76h13.063L815.996,266.744L815.996,266.744
		z M742.974,451.726l4.036,12.555h13.062l-10.568,7.759l4.038,12.555l-10.568-7.759l-10.569,7.759l4.036-12.555l-10.567-7.759
		h13.063L742.974,451.726L742.974,451.726z M815.996,390.066l4.037,12.555h13.063l-10.568,7.758l4.036,12.555l-10.567-7.76
		l-10.567,7.76l4.035-12.555l-10.568-7.758h13.063L815.996,390.066L815.996,390.066z M707.423,298.303l4.037,12.555h13.063
		l-10.568,7.759l4.036,12.555l-10.568-7.759l-10.567,7.759l4.037-12.555l-10.568-7.759h13.062L707.423,298.303L707.423,298.303z
		 M742.974,266.744l4.036,12.555h13.062l-10.568,7.76l4.038,12.555l-10.568-7.758l-10.569,7.758l4.036-12.555l-10.567-7.76h13.063
		L742.974,266.744L742.974,266.744z M526.787,266.744l4.037,12.555h13.063l-10.568,7.76l4.036,12.555l-10.568-7.758l-10.568,7.758
		l4.037-12.555l-10.567-7.76h13.062L526.787,266.744L526.787,266.744z M455.686,390.066l4.036,12.555h13.063l-10.568,7.758
		l4.037,12.555l-10.567-7.76l-10.568,7.76l4.036-12.555l-10.568-7.758h13.063L455.686,390.066L455.686,390.066z M526.787,451.726
		l4.037,12.555h13.063l-10.568,7.759l4.036,12.555l-10.568-7.759l-10.568,7.759l4.037-12.555l-10.567-7.759h13.062L526.787,451.726
		L526.787,451.726z M526.787,328.405l4.037,12.554h13.063l-10.568,7.76l4.036,12.555l-10.568-7.759l-10.568,7.759l4.037-12.555
		l-10.567-7.76h13.062L526.787,328.405L526.787,328.405z M599.81,513.387l4.037,12.554h13.063l-10.568,7.759l4.036,12.555
		l-10.568-7.759l-10.567,7.759l4.036-12.555l-10.568-7.759h13.063L599.81,513.387L599.81,513.387z M635.362,483.284l4.036,12.556
		h13.062l-10.568,7.758l4.037,12.555l-10.567-7.759l-10.568,7.759l4.036-12.555l-10.568-7.758h13.063L635.362,483.284
		L635.362,483.284z M599.81,328.405l4.037,12.554h13.063l-10.568,7.76l4.036,12.555l-10.568-7.759l-10.567,7.759l4.036-12.555
		l-10.568-7.76h13.063L599.81,328.405L599.81,328.405z M671.392,390.066l4.037,12.555h13.062l-10.568,7.758l4.035,12.555
		l-10.566-7.76l-10.568,7.76l4.037-12.555l-10.568-7.758h13.063L671.392,390.066L671.392,390.066z M455.686,513.387l4.036,12.554
		h13.063l-10.568,7.759l4.037,12.555l-10.567-7.759l-10.568,7.759l4.036-12.555l-10.568-7.759h13.063L455.686,513.387
		L455.686,513.387z M671.392,451.726l4.037,12.555h13.062l-10.568,7.759l4.035,12.555l-10.566-7.759l-10.568,7.759l4.037-12.555
		l-10.568-7.759h13.063L671.392,451.726L671.392,451.726z M599.81,390.066l4.037,12.555h13.063l-10.568,7.758l4.036,12.555
		l-10.568-7.76l-10.567,7.76l4.036-12.555l-10.568-7.758h13.063L599.81,390.066L599.81,390.066z M599.81,266.744l4.037,12.555
		h13.063l-10.568,7.76l4.036,12.555l-10.568-7.758l-10.567,7.758l4.036-12.555l-10.568-7.76h13.063L599.81,266.744L599.81,266.744z
		 M455.686,451.726l4.036,12.555h13.063l-10.568,7.759l4.037,12.555l-10.567-7.759l-10.568,7.759l4.036-12.555l-10.568-7.759h13.063
		L455.686,451.726L455.686,451.726z M526.787,513.387l4.037,12.554h13.063l-10.568,7.759l4.036,12.555l-10.568-7.759l-10.568,7.759
		l4.037-12.555l-10.567-7.759h13.062L526.787,513.387L526.787,513.387z M742.974,390.066l4.036,12.555h13.062l-10.568,7.758
		l4.038,12.555l-10.568-7.76l-10.569,7.76l4.036-12.555l-10.567-7.758h13.063L742.974,390.066L742.974,390.066z M742.974,328.405
		l4.036,12.554h13.062l-10.568,7.76l4.038,12.555l-10.568-7.759l-10.569,7.759l4.036-12.555l-10.567-7.76h13.063L742.974,328.405
		L742.974,328.405z M707.423,483.284l4.037,12.556h13.063l-10.568,7.758l4.036,12.555l-10.568-7.759l-10.567,7.759l4.037-12.555
		l-10.568-7.758h13.062L707.423,483.284L707.423,483.284z M671.392,513.387l4.037,12.554h13.062l-10.568,7.759l4.035,12.555
		l-10.566-7.759l-10.568,7.759l4.037-12.555l-10.568-7.759h13.063L671.392,513.387
		L671.392,513.387z M671.392,328.405l4.037,12.554h13.062l-10.568,7.76l4.035,12.555l-10.566-7.759l-10.568,7.759l4.037-12.555
		l-10.568-7.76h13.063L671.392,328.405L671.392,328.405z M526.787,390.066l4.037,12.555h13.063l-10.568,7.758l4.036,12.555
		l-10.568-7.76l-10.568,7.76l4.037-12.555l-10.567-7.758h13.062L526.787,390.066L526.787,390.066z M779.485,359.964l4.037,12.555
		h13.062l-10.567,7.759l4.036,12.555l-10.568-7.758l-10.566,7.758l4.036-12.555l-10.568-7.759h13.063L779.485,359.964
		L779.485,359.964z M779.485,421.624l4.037,12.555h13.062l-10.567,7.759l4.036,12.555l-10.568-7.759l-10.566,7.759l4.036-12.555
		l-10.568-7.759h13.063L779.485,421.624L779.485,421.624z M455.686,328.405l4.036,12.554h13.063l-10.568,7.76l4.037,12.555
		l-10.567-7.759l-10.568,7.759l4.036-12.555l-10.568-7.76h13.063L455.686,328.405L455.686,328.405z M779.485,298.303l4.037,12.555
		h13.062l-10.567,7.759l4.036,12.555l-10.568-7.759l-10.566,7.759l4.036-12.555l-10.568-7.759h13.063L779.485,298.303
		L779.485,298.303z M707.423,359.964l4.037,12.555h13.063l-10.568,7.759l4.036,12.555l-10.568-7.758l-10.567,7.758l4.037-12.555
		l-10.568-7.759h13.062L707.423,359.964L707.423,359.964z M707.423,421.624l4.037,12.555h13.063l-10.568,7.759l4.036,12.555
		l-10.568-7.759l-10.567,7.759l4.037-12.555l-10.568-7.759h13.062L707.423,421.624L707.423,421.624z M671.392,266.744l4.037,12.555
		h13.062l-10.568,7.76l4.035,12.555l-10.566-7.758l-10.568,7.758l4.037-12.555l-10.568-7.76h13.063L671.392,266.744L671.392,266.744
		z M599.81,451.726l4.037,12.555h13.063l-10.568,7.759l4.036,12.555l-10.568-7.759l-10.567,7.759l4.036-12.555l-10.568-7.759h13.063
		L599.81,451.726L599.81,451.726z M779.485,483.284l4.037,12.556h13.062l-10.567,7.758l4.036,12.555l-10.568-7.759l-10.566,7.759
		l4.036-12.555l-10.568-7.758h13.063L779.485,483.284L779.485,483.284z M491.237,483.284l4.036,12.556h13.063l-10.567,7.758
		l4.036,12.555l-10.567-7.759l-10.568,7.759l4.036-12.555l-10.567-7.758H487.2L491.237,483.284L491.237,483.284z M491.237,421.624
		l4.036,12.555h13.063l-10.567,7.759l4.036,12.555l-10.567-7.759l-10.568,7.759l4.036-12.555l-10.567-7.759H487.2L491.237,421.624
		L491.237,421.624z M563.3,421.624l4.035,12.555h13.063l-10.568,7.759l4.037,12.555l-10.567-7.759l-10.569,7.759l4.037-12.555
		l-10.568-7.759h13.062L563.3,421.624L563.3,421.624z M635.362,359.964l4.036,12.555h13.062l-10.568,7.759l4.037,12.555
		l-10.567-7.758l-10.568,7.758l4.036-12.555l-10.568-7.759h13.063L635.362,359.964L635.362,359.964z M563.3,298.303l4.035,12.555
		h13.063l-10.568,7.759l4.037,12.555l-10.567-7.759l-10.569,7.759l4.037-12.555l-10.568-7.759h13.062L563.3,298.303L563.3,298.303z
		 M563.3,359.964l4.035,12.555h13.063l-10.568,7.759l4.037,12.555l-10.567-7.758l-10.569,7.758l4.037-12.555l-10.568-7.759h13.062
		L563.3,359.964L563.3,359.964z M455.686,266.744l4.036,12.555h13.063l-10.568,7.76l4.037,12.555l-10.567-7.758l-10.568,7.758
		l4.036-12.555l-10.568-7.76h13.063L455.686,266.744L455.686,266.744z M491.237,359.964l4.036,12.555h13.063l-10.567,7.759
		l4.036,12.555l-10.567-7.758l-10.568,7.758l4.036-12.555l-10.567-7.759H487.2L491.237,359.964L491.237,359.964z M491.237,298.303
		l4.036,12.555h13.063l-10.567,7.759l4.036,12.555l-10.567-7.759l-10.568,7.759l4.036-12.555l-10.567-7.759H487.2L491.237,298.303
		L491.237,298.303z M563.3,483.284l4.035,12.556h13.063l-10.568,7.758l4.037,12.555l-10.567-7.759l-10.569,7.759l4.037-12.555
		l-10.568-7.758h13.062L563.3,483.284L563.3,483.284z M635.362,298.303l4.036,12.555h13.062l-10.568,7.759l4.037,12.555
		l-10.567-7.759l-10.568,7.759l4.036-12.555l-10.568-7.759h13.063L635.362,298.303L635.362,298.303z"/>
</g>
</svg>
