<?xml version="1.0" encoding="UTF-8"?>
<!DOCTYPE svg PUBLIC "-//W3C//DTD SVG 1.1//EN" "http://www.w3.org/Graphics/SVG/1.1/DTD/svg11.dtd">
<svg xmlns="http://www.w3.org/2000/svg" version="1.1" width="512px" height="512px" style="shape-rendering:geometricPrecision; text-rendering:geometricPrecision; image-rendering:optimizeQuality; fill-rule:evenodd; clip-rule:evenodd" xmlns:xlink="http://www.w3.org/1999/xlink">
<g><path style="opacity:0.994" fill="#e5e5e5" d="M 240.5,1.5 C 341.791,-0.283376 419.624,41.05 474,125.5C 516.374,201.703 520.707,280.036 487,360.5C 442.675,450.096 370.508,499.596 270.5,509C 169.182,511.268 91.3484,470.101 37,385.5C -5.37394,309.297 -9.70727,230.964 24,150.5C 68.4787,60.8911 140.645,11.2244 240.5,1.5 Z"/></g>
<g><path style="opacity:1" fill="#2d697f" d="M 308.5,130.5 C 308.167,130.5 307.833,130.5 307.5,130.5C 294.355,119.531 281.022,108.697 267.5,98C 258.101,94.1334 249.101,94.8 240.5,100C 228.268,110.409 215.935,120.575 203.5,130.5C 203.167,130.5 202.833,130.5 202.5,130.5C 191.828,130.667 181.161,130.5 170.5,130C 186.833,115 203.167,100 219.5,85C 234.846,73.6398 251.846,70.3065 270.5,75C 276.868,76.898 282.868,79.5646 288.5,83C 306.132,98.2969 323.465,113.964 340.5,130C 329.839,130.5 319.172,130.667 308.5,130.5 Z"/></g>
<g><path style="opacity:1" fill="#fdaa7f" d="M 307.5,130.5 C 272.833,130.5 238.167,130.5 203.5,130.5C 215.935,120.575 228.268,110.409 240.5,100C 249.101,94.8 258.101,94.1334 267.5,98C 281.022,108.697 294.355,119.531 307.5,130.5 Z"/></g>
<g><path style="opacity:1" fill="#fefefe" d="M 202.5,130.5 C 202.833,130.5 203.167,130.5 203.5,130.5C 238.167,130.5 272.833,130.5 307.5,130.5C 307.833,130.5 308.167,130.5 308.5,130.5C 328.666,131.314 348.999,131.314 369.5,130.5C 368.679,169.828 368.346,209.161 368.5,248.5C 346.492,269.174 324.159,289.507 301.5,309.5C 280.816,287.414 256.482,282.247 228.5,294C 221.397,298.274 215.064,303.441 209.5,309.5C 186.841,289.507 164.508,269.174 142.5,248.5C 142.654,209.161 142.321,169.828 141.5,130.5C 162.001,131.314 182.334,131.314 202.5,130.5 Z"/></g>
<g><path style="opacity:1" fill="#4e4e4e" d="M 245.5,154.5 C 278.41,152.192 300.243,166.525 311,197.5C 316.074,233.064 301.574,256.231 267.5,267C 233.382,271.205 210.882,257.038 200,224.5C 195.336,188.14 210.503,164.807 245.5,154.5 Z"/></g>
<g><path style="opacity:1" fill="#2b687f" d="M 141.5,181.5 C 131.042,189.453 120.708,197.619 110.5,206C 108.406,207.255 107.406,209.088 107.5,211.5C 107.787,214.865 108.954,217.865 111,220.5C 120.741,230.08 130.908,239.08 141.5,247.5C 141.5,248.167 141.833,248.5 142.5,248.5C 164.508,269.174 186.841,289.507 209.5,309.5C 173.764,341.063 138.43,373.229 103.5,406C 204.833,406.667 306.167,406.667 407.5,406C 372.283,373.583 336.949,341.416 301.5,309.5C 324.159,289.507 346.492,269.174 368.5,248.5C 369.167,248.5 369.5,248.167 369.5,247.5C 380.092,239.08 390.259,230.08 400,220.5C 401.761,217.551 402.928,214.384 403.5,211C 403.357,208.849 402.357,207.182 400.5,206C 390.292,197.619 379.958,189.453 369.5,181.5C 369.334,173.16 369.5,164.827 370,156.5C 382.983,167.982 395.816,179.649 408.5,191.5C 410.919,193.754 412.752,196.421 414,199.5C 414.5,268.833 414.667,338.166 414.5,407.5C 310.5,407.5 206.5,407.5 102.5,407.5C 100.735,406.539 98.7354,406.205 96.5,406.5C 96.5,339.833 96.5,273.167 96.5,206.5C 95.9094,201.017 97.5761,196.35 101.5,192.5C 114.517,180.315 127.684,168.315 141,156.5C 141.5,164.827 141.666,173.16 141.5,181.5 Z"/></g>
<g><path style="opacity:1" fill="#fdaa80" d="M 141.5,181.5 C 141.5,203.5 141.5,225.5 141.5,247.5C 130.908,239.08 120.741,230.08 111,220.5C 108.954,217.865 107.787,214.865 107.5,211.5C 107.406,209.088 108.406,207.255 110.5,206C 120.708,197.619 131.042,189.453 141.5,181.5 Z"/></g>
<g><path style="opacity:1" fill="#fdaa80" d="M 369.5,181.5 C 379.958,189.453 390.292,197.619 400.5,206C 402.357,207.182 403.357,208.849 403.5,211C 402.928,214.384 401.761,217.551 400,220.5C 390.259,230.08 380.092,239.08 369.5,247.5C 369.5,225.5 369.5,203.5 369.5,181.5 Z"/></g>
<g><path style="opacity:1" fill="#fcfcfc" d="M 280.5,182.5 C 290.089,181.019 294.923,185.019 295,194.5C 294.333,195.833 293.667,197.167 293,198.5C 279.5,212 266,225.5 252.5,239C 248.302,241.161 244.302,240.828 240.5,238C 234.667,232.167 228.833,226.333 223,220.5C 217.844,208.662 221.678,203.162 234.5,204C 238.967,207.465 243.133,211.298 247,215.5C 258.062,204.271 269.228,193.271 280.5,182.5 Z"/></g>
<g><path style="opacity:1" fill="#98b1bb" d="M 96.5,206.5 C 96.5,273.167 96.5,339.833 96.5,406.5C 98.7354,406.205 100.735,406.539 102.5,407.5C 100.167,407.5 97.8333,407.5 95.5,407.5C 95.1675,340.331 95.5008,273.331 96.5,206.5 Z"/></g>
<g><path style="opacity:1" fill="#10556b" d="M 301.5,309.5 C 336.949,341.416 372.283,373.583 407.5,406C 306.167,406.667 204.833,406.667 103.5,406C 138.43,373.229 173.764,341.063 209.5,309.5C 215.064,303.441 221.397,298.274 228.5,294C 256.482,282.247 280.816,287.414 301.5,309.5 Z"/></g>
</svg>
