<?xml version="1.0" encoding="UTF-8"?>
<svg id="Layer_1" xmlns="http://www.w3.org/2000/svg" version="1.1" viewBox="0 0 512 512">
  <!-- Generator: Adobe Illustrator 29.0.0, SVG Export Plug-In . SVG Version: 2.1.0 Build 186)  -->
  <defs>
    <style>
      .st0 {
        fill: #e6e9ee;
      }

      .st1 {
        fill: #e5e5e5;
        fill-rule: evenodd;
        isolation: isolate;
        opacity: 1;
      }

      .st2 {
        fill: #003645;
      }

      .st3 {
        fill: #9dd8ff;
      }

      .st4 {
        fill: #48baff;
      }

      .st5 {
        fill: #fff;
      }

      .st6 {
        fill: #eb9500;
      }
    </style>
  </defs>
  <path class="st1" d="M240.5,1.5c101.3-1.8,179.1,39.5,233.5,124,42.4,76.2,46.7,154.5,13,235-44.3,89.6-116.5,139.1-216.5,148.5-101.3,2.3-179.2-38.9-233.5-123.5C-5.4,309.3-9.7,231,24,150.5,68.5,60.9,140.6,11.2,240.5,1.5Z"/>
  <path class="st2" d="M293.5,420.2h-130.7c-14.4,0-26.1-13.1-26.1-29.3V119.6c0-16.2,11.7-29.3,26.1-29.3h130.7c14.4,0,26.1,13.1,26.1,29.3v271.4c0,16.2-11.7,29.3-26.1,29.3Z"/>
  <g>
    <circle class="st0" cx="228.1" cy="395" r="12.5"/>
    <path class="st0" d="M258.8,121.6h-61.3c-1,0-1.9-.8-1.9-1.9h0c0-1,.8-1.9,1.9-1.9h61.3c1,0,1.9.8,1.9,1.9h0c.1.9-.7,1.9-1.9,1.9Z"/>
    <rect class="st0" x="219.8" y="106.1" width="16.6" height="3.9"/>
  </g>
  <polygon class="st3" points="306 371.4 306 131.5 150.4 371.4 306 371.4"/>
  <polygon class="st4" points="150.4 371.4 306 131.5 150.4 131.5 150.4 371.4"/>
  <path class="st6" d="M429.3,177.6c-39.4-32.5-103.2-32.5-142.7,0-34.6,28.5-38.8,72.7-12.7,105.1l-9,30.6,37.1-7.4c39.2,21.6,92.6,18.2,127.3-10.5,39.4-32.5,39.4-85.2,0-117.8Z"/>
  <g>
    <path class="st5" d="M323.1,243.3c0,3.5-1.3,6.3-3.9,8.5-2.6,2.1-5.9,3.1-9.9,3.1s-5.5-.5-8.3-1.5c-2.8-.9-5.5-2.3-7.8-4.2l4.4-6.2c3.7,2.8,7.7,4.3,11.9,4.3s2.3-.2,3-.7c.7-.5,1.2-1.2,1.2-2s-.5-1.6-1.6-2.3-2.5-1.4-4.5-2c-2-.6-3.5-1.2-4.5-1.6s-2.2-1-3.6-1.9c-2.7-1.7-4.1-4.2-4.1-7.4s1.4-6,4-8.1,6.1-3.1,10.3-3.1,8.4,1.4,12.6,4.2l-3.7,6.6c-3-2.1-6.2-3.1-9.2-3.1s-4.6.8-4.6,2.5.5,1.7,1.5,2.2,2.6,1.2,4.8,1.9,3.9,1.3,4.8,1.6c.9.4,2.1.9,3.5,1.8,2.4,1.5,3.7,4,3.7,7.4Z"/>
    <path class="st5" d="M363.4,235.2v19.2h-10v-19.5c0-2.8-.4-4.9-1.3-6.2-.8-1.4-2.2-2-4.2-2s-3.7.7-5.1,2.2c-1.5,1.5-2.2,3.6-2.2,6.3v19.2h-10v-35.7h10v4.1c2.7-3,5.9-4.6,9.4-4.6s4.3.6,6.1,2c1.8,1.4,3.3,2.9,4.1,4.8,1.4-2.2,3.3-3.9,5.6-5,2.3-1.2,4.6-1.8,7-1.8,4.2,0,7.6,1.3,10.2,3.8,2.5,2.5,3.9,6.1,3.9,10.8v21.6h-10v-19.5c0-5.5-2-8.2-6-8.2s-3.7.7-5.1,2.2c-1.7,1.4-2.4,3.5-2.4,6.3Z"/>
    <path class="st5" d="M422.7,243.3c0,3.5-1.3,6.3-3.9,8.5-2.6,2.1-5.9,3.1-9.9,3.1s-5.5-.5-8.3-1.5c-2.8-.9-5.5-2.3-7.8-4.2l4.4-6.2c3.7,2.8,7.7,4.3,11.9,4.3s2.3-.2,3-.7c.7-.5,1.2-1.2,1.2-2s-.5-1.6-1.6-2.3-2.5-1.4-4.5-2c-2-.6-3.5-1.2-4.5-1.6s-2.2-1-3.6-1.9c-2.7-1.7-4.1-4.2-4.1-7.4s1.4-6,4-8.1,6.1-3.1,10.3-3.1,8.4,1.4,12.6,4.2l-3.7,6.6c-3-2.1-6.2-3.1-9.2-3.1s-4.6.8-4.6,2.5.5,1.7,1.5,2.2,2.6,1.2,4.8,1.9,3.9,1.3,4.8,1.6c.9.4,2.1.9,3.5,1.8,2.4,1.5,3.7,4,3.7,7.4Z"/>
  </g>
</svg>